<?xml version="1.0" encoding="UTF-8" standalone="no"?>
<!-- Generator: Adobe Illustrator 18.1.1, SVG Export Plug-In . SVG Version: 6.00 Build 0)  -->

<svg
   xmlns:dc="http://purl.org/dc/elements/1.1/"
   xmlns:cc="http://creativecommons.org/ns#"
   xmlns:rdf="http://www.w3.org/1999/02/22-rdf-syntax-ns#"
   xmlns:svg="http://www.w3.org/2000/svg"
   xmlns="http://www.w3.org/2000/svg"
   xmlns:sodipodi="http://sodipodi.sourceforge.net/DTD/sodipodi-0.dtd"
   xmlns:inkscape="http://www.inkscape.org/namespaces/inkscape"
   version="1.1"
   id="Layer_1"
   x="0px"
   y="0px"
   width="16"
   height="16"
   viewBox="0 0 32 32"
   enable-background="new 0 0 32 32"
   xml:space="preserve"
   sodipodi:docname="icon-linkedin.svg"
   inkscape:version="0.92.2 (5c3e80d, 2017-08-06)"><metadata
     id="metadata17"><rdf:RDF><cc:Work
         rdf:about=""><dc:format>image/svg+xml</dc:format><dc:type
           rdf:resource="http://purl.org/dc/dcmitype/StillImage" /></cc:Work></rdf:RDF></metadata><defs
     id="defs15" /><sodipodi:namedview
     pagecolor="#ffffff"
     bordercolor="#666666"
     borderopacity="1"
     objecttolerance="10"
     gridtolerance="10"
     guidetolerance="10"
     inkscape:pageopacity="0"
     inkscape:pageshadow="2"
     inkscape:window-width="1366"
     inkscape:window-height="705"
     id="namedview13"
     showgrid="false"
     inkscape:zoom="16.75"
     inkscape:cx="-4.9552238"
     inkscape:cy="16"
     inkscape:window-x="-8"
     inkscape:window-y="-8"
     inkscape:window-maximized="1"
     inkscape:current-layer="Layer_1" /><path
     d="M 30.7,0 H 1.3 C 0.6,0 0,0.6 0,1.3 V 30.6 C 0,31.4 0.6,32 1.3,32 h 29.3 c 0.7,0 1.3,-0.6 1.3,-1.3 V 1.3 C 32,0.6 31.4,0 30.7,0 Z M 9.5,27.3 H 4.7 V 12 H 9.5 Z M 7.1,9.9 C 5.6,9.9 4.3,8.7 4.3,7.1 4.3,5.6 5.5,4.3 7.1,4.3 c 1.5,0 2.8,1.2 2.8,2.8 0,1.6 -1.3,2.8 -2.8,2.8 z m 20.2,17.4 h -4.7 v -7.4 c 0,-1.8 0,-4 -2.5,-4 -2.5,0 -2.8,1.9 -2.8,3.9 v 7.6 H 12.6 V 12 H 17 v 2.1 h 0.1 c 0.6,-1.2 2.2,-2.5 4.5,-2.5 4.8,0 5.7,3.2 5.7,7.3 z"
     id="path10"
     inkscape:connector-curvature="0"
     style="fill:#828282" /></svg>